<svg viewBox="0 0 17067 17067" xmlns="http://www.w3.org/2000/svg" xml:space="preserve" fill-rule="evenodd" clip-rule="evenodd" stroke-linejoin="round" stroke-miterlimit="2"><path d="M115835 191622c275-218 623-348 1001-348 893 0 1617 725 1617 1618v851c0 340-276 615-616 615-339 0-615-275-615-615v-851c0-213-173-386-386-386s-386 173-386 386v1303c0 340-276 616-615 616-340 0-616-276-616-616v-1303c0-213-173-386-386-386s-386 173-386 386v1756a615.4 615.4 0 1 1-1231 0v-1756c0-893 725-1618 1617-1618 378 0 726 130 1002 348" fill="url(#a)" transform="matrix(1.10568 0 0 1.12452 -119550 -202512)"/><path d="M8533.3 3637c-471.8 297.1-998 598.6-1529.2 909.5C5296.5 5545.7 3538.5 6685 4914 8327c294.8 352-205.7 730.1-1117 844s-1890.4-79.5-2185.2-431.4C103.5 6939 1333.3 5588.8 3098 4428.5c780.4-513.1 1669.4-985 2417.8-1444.2 605.3-371.4 1125.2-728 1303.9-1102.7a377 377 0 0 1 51.8-87c84.5-108.8 236.6-204.3 435-280.7 197.9-76.6 445.3-135.4 727-168a4322 4322 0 0 1 500-28.5c172 0 340.2 9.9 499.9 28.5 281.7 32.6 529 91.4 727 168 198.3 76.4 350.5 172 434.9 280.7a376 376 0 0 1 51.9 87c178.6 374.7 698.6 731.3 1303.8 1102.7 748.4 459.2 1637.5 931 2417.8 1444.2 1764.7 1160.3 2994.4 2510.5 1486 4311.1-294.8 352-1273.9 545.2-2185.2 431.4s-1411.7-492-1116.9-844c1375.5-1642-382.4-2781.3-2090-3780.5-531.3-311-1057.4-612.4-1529.3-909.5" fill="url(#b)" transform="matrix(.5813 0 0 1.53089 3572.8 -2016.8)"/><defs><linearGradient id="a" x1="0" y1="0" x2="1" y2="0" gradientUnits="userSpaceOnUse" gradientTransform="rotate(90 -31323 147158)scale(18684.7)"><stop offset="0" stop-color="#172d62"/><stop offset=".5" stop-color="#375c96"/><stop offset="1" stop-color="#416ba7"/></linearGradient><linearGradient id="b" x1="0" y1="0" x2="1" y2="0" gradientUnits="userSpaceOnUse" gradientTransform="matrix(0 13724.9 -35539.4 0 7107.9 0)"><stop offset="0" stop-color="#172d62"/><stop offset=".5" stop-color="#365b96"/><stop offset="1" stop-color="#416ba7"/></linearGradient></defs></svg>
