<svg xmlns="http://www.w3.org/2000/svg" xml:space="preserve" width="100%" height="200%" viewBox="0 0 2000 2000" preserveAspectRatio="xMidYMid slice">
    <circle cx="67" cy="317" r="4" fill="#FFF" />
    <circle cx="231" cy="382" r="4" fill="#FFF" />
    <circle cx="396" cy="298" r="4" fill="#FFF" />
    <circle cx="1387" cy="327" r="4" fill="#FFF" />
    <circle cx="1542" cy="396" r="4" fill="#FFF" />
    <circle cx="1728" cy="284" r="4" fill="#FFF" />
    <circle cx="1893" cy="372" r="4" fill="#FFF" />

    <circle cx="432" cy="567" r="4" fill="#FFF" />
    <circle cx="614" cy="487" r="4" fill="#FFF" />
    <circle cx="779" cy="571" r="4" fill="#FFF" />
    <circle cx="938" cy="498" r="4" fill="#FFF" />
    <circle cx="1076" cy="582" r="4" fill="#FFF" />
    <circle cx="1264" cy="462" r="4" fill="#FFF" />
    <circle cx="1432" cy="543" r="4" fill="#FFF" />

    <circle cx="82" cy="678" r="4" fill="#FFF" />
    <circle cx="243" cy="723" r="4" fill="#FFF" />
    <circle cx="412" cy="654" r="4" fill="#FFF" />
    <circle cx="743" cy="673" r="4" fill="#FFF" />
    <circle cx="902" cy="746" r="4" fill="#FFF" />
    <circle cx="1562" cy="754" r="4" fill="#FFF" />
    <circle cx="1734" cy="678" r="4" fill="#FFF" />
    <circle cx="1879" cy="742" r="4" fill="#FFF" />

    <circle cx="431" cy="892" r="4" fill="#FFF" />
    <circle cx="598" cy="834" r="4" fill="#FFF" />
    <circle cx="767" cy="897" r="4" fill="#FFF" />
    <circle cx="927" cy="841" r="4" fill="#FFF" />
    <circle cx="1082" cy="912" r="4" fill="#FFF" />
    <circle cx="1247" cy="853" r="4" fill="#FFF" />
    <circle cx="1413" cy="923" r="4" fill="#FFF" />

    <circle cx="89" cy="1032" r="4" fill="#FFF" />
    <circle cx="243" cy="1092" r="4" fill="#FFF" />
    <circle cx="417" cy="1023" r="4" fill="#FFF" />
    <circle cx="572" cy="1097" r="4" fill="#FFF" />
    <circle cx="1067" cy="1036" r="4" fill="#FFF" />
    <circle cx="1238" cy="1112" r="4" fill="#FFF" />
    <circle cx="1726" cy="1043" r="4" fill="#FFF" />
    <circle cx="1892" cy="1118" r="4" fill="#FFF" />

    <circle cx="104" cy="1237" r="4" fill="#FFF" />
    <circle cx="267" cy="1198" r="4" fill="#FFF" />
    <circle cx="432" cy="1265" r="4" fill="#FFF" />
    <circle cx="938" cy="1203" r="4" fill="#FFF" />
    <circle cx="1092" cy="1283" r="4" fill="#FFF" />
    <circle cx="1256" cy="1234" r="4" fill="#FFF" />
    <circle cx="1413" cy="1293" r="4" fill="#FFF" />
    <circle cx="1576" cy="1223" r="4" fill="#FFF" />

    <circle cx="573" cy="1462" r="4" fill="#FFF" />
    <circle cx="728" cy="1395" r="4" fill="#FFF" />
    <circle cx="896" cy="1472" r="4" fill="#FFF" />
    <circle cx="1053" cy="1406" r="4" fill="#FFF" />
    <circle cx="1226" cy="1481" r="4" fill="#FFF" />
    <circle cx="1392" cy="1414" r="4" fill="#FFF" />
    <circle cx="1567" cy="1492" r="4" fill="#FFF" />

    <circle cx="112" cy="1597" r="4" fill="#FFF" />
    <circle cx="278" cy="1543" r="4" fill="#FFF" />
    <circle cx="1087" cy="1645" r="4" fill="#FFF" />
    <circle cx="1253" cy="1587" r="4" fill="#FFF" />
    <circle cx="1743" cy="1647" r="4" fill="#FFF" />
    <circle cx="1913" cy="1593" r="4" fill="#FFF" />

    <circle cx="89" cy="1763" r="4" fill="#FFF" />
    <circle cx="754" cy="1792" r="4" fill="#FFF" />
    <circle cx="912" cy="1736" r="4" fill="#FFF" />
    <circle cx="1412" cy="1813" r="4" fill="#FFF" />
    <circle cx="1587" cy="1753" r="4" fill="#FFF" />

    <circle cx="123" cy="1897" r="4" fill="#FFF" />
    <circle cx="278" cy="1842" r="4" fill="#FFF" />
    <circle cx="1093" cy="1953" r="4" fill="#FFF" />
    <circle cx="1254" cy="1892" r="4" fill="#FFF" />
    <circle cx="1426" cy="1967" r="4" fill="#FFF" />
    <circle cx="1911" cy="1923" r="4" fill="#FFF" />
</svg>