<svg xmlns="http://www.w3.org/2000/svg" xml:space="preserve" width="100%" height="200%" viewBox="0 0 2000 2000" preserveAspectRatio="xMidYMid slice">
    <circle cx="167" cy="217" r="2.5" fill="#FFF" />
    <circle cx="831" cy="182" r="2.5" fill="#FFF" />
    <circle cx="396" cy="1498" r="2.5" fill="#FFF" />
    <circle cx="1564" cy="342" r="2.5" fill="#FFF" />
    <circle cx="321" cy="891" r="2.5" fill="#FFF" />
    <circle cx="1895" cy="758" r="2.5" fill="#FFF" />
    <circle cx="642" cy="102" r="2.5" fill="#FFF" />
    <circle cx="1215" cy="1867" r="2.5" fill="#FFF" />
    <circle cx="87" cy="1327" r="2.5" fill="#FFF" />
    <circle cx="1742" cy="196" r="2.5" fill="#FFF" />

    <circle cx="1942" cy="1532" r="2.5" fill="#FFF" />
    <circle cx="593" cy="1987" r="2.5" fill="#FFF" />
    <circle cx="1432" cy="1267" r="2.5" fill="#FFF" />
    <circle cx="214" cy="587" r="2.5" fill="#FFF" />
    <circle cx="1779" cy="571" r="2.5" fill="#FFF" />
    <circle cx="938" cy="1798" r="2.5" fill="#FFF" />
    <circle cx="1676" cy="782" r="2.5" fill="#FFF" />
    <circle cx="264" cy="1462" r="2.5" fill="#FFF" />
    <circle cx="1032" cy="1243" r="2.5" fill="#FFF" />
    <circle cx="1825" cy="412" r="2.5" fill="#FFF" />

    <circle cx="682" cy="1678" r="2.5" fill="#FFF" />
    <circle cx="1443" cy="323" r="2.5" fill="#FFF" />
    <circle cx="112" cy="954" r="2.5" fill="#FFF" />
    <circle cx="987" cy="1712" r="2.5" fill="#FFF" />
    <circle cx="1343" cy="173" r="2.5" fill="#FFF" />
    <circle cx="502" cy="1346" r="2.5" fill="#FFF" />
    <circle cx="1787" cy="898" r="2.5" fill="#FFF" />
    <circle cx="354" cy="1962" r="2.5" fill="#FFF" />
    <circle cx="1123" cy="687" r="2.5" fill="#FFF" />
    <circle cx="762" cy="1254" r="2.5" fill="#FFF" />

    <circle cx="1476" cy="1863" r="2.5" fill="#FFF" />
    <circle cx="307" cy="112" r="2.5" fill="#FFF" />
    <circle cx="1872" cy="1542" r="2.5" fill="#FFF" />
    <circle cx="598" cy="817" r="2.5" fill="#FFF" />
    <circle cx="1467" cy="452" r="2.5" fill="#FFF" />
    <circle cx="927" cy="1326" r="2.5" fill="#FFF" />
    <circle cx="182" cy="1547" r="2.5" fill="#FFF" />
    <circle cx="1647" cy="621" r="2.5" fill="#FFF" />
    <circle cx="413" cy="1273" r="2.5" fill="#FFF" />
    <circle cx="1292" cy="394" r="2.5" fill="#FFF" />

    <circle cx="1789" cy="1632" r="2.5" fill="#FFF" />
    <circle cx="243" cy="1392" r="2.5" fill="#FFF" />
    <circle cx="917" cy="223" r="2.5" fill="#FFF" />
    <circle cx="1572" cy="1797" r="2.5" fill="#FFF" />
    <circle cx="528" cy="645" r="2.5" fill="#FFF" />
    <circle cx="1313" cy="1503" r="2.5" fill="#FFF" />
    <circle cx="867" cy="936" r="2.5" fill="#FFF" />
    <circle cx="1138" cy="1112" r="2.5" fill="#FFF" />
    <circle cx="392" cy="462" r="2.5" fill="#FFF" />
    <circle cx="1657" cy="1107" r="2.5" fill="#FFF" />
</svg>