<svg xmlns="http://www.w3.org/2000/svg" viewBox="0 0 106 23"><g fill="none"><path d="M23.7 17.1h2q1.4 0 1.6-1.2c0-1-1-1.1-1.8-1.1h-1.8zm0-4.3h1.7q1.2 0 1.4-1.1c0-1-.8-1.1-1.5-1.1h-1.6zm-2.3-4.2h4c1.7 0 3.7.4 3.7 2.7q0 1.8-1.8 2.3 2.2.4 2.3 2.6c0 2.2-2 2.9-3.9 2.9h-4.3zm13.8 3L33.9 15h2.6zm-.9-3h2l4.5 10.5h-2.6l-1-2.2h-4l-.9 2.2h-2.5zm14.2 2.7q-.5-.8-2-.8c-1.7 0-3 1.4-3 3.4s1.3 3.3 3 3.3q1.5 0 2.1-1l2 1.3a5 5 0 0 1-3.8 1.9c-3.3 0-5.7-2.2-5.7-5.5 0-3.4 2.4-5.5 5.7-5.5 1.1 0 2.6.4 3.5 1.5zm3.3-2.7H54V13l4-4.4h3l-4.6 4.9 5 5.6h-3.2l-4.2-5v5h-2.3z" fill="#231F20"/><path d="M64.5 17.1h2.1c.7 0 1.6-.3 1.6-1.2 0-1-1.2-1.1-2-1.1h-1.7zm0-4.3h1.7c.7 0 1.5-.3 1.5-1.1 0-1-.9-1.1-1.6-1.1h-1.6zm-2.3-4.2h4c1.8 0 3.8.4 3.8 2.7q-.2 1.8-1.8 2.3 2.1.4 2.3 2.6c0 2.2-2.1 2.9-4 2.9h-4.3zm9.6 0H74V17h4.3v2h-6.6z" fill="#646475"/><path d="m82.6 11.7-1.3 3.2H84zm-.9-3h2L88.1 19h-2.6l-1-2.2h-4l-.9 2.2h-2.5zm6.8 8.3 5.4-6.3h-5.2v-2h8v2L91.3 17h5.4v2h-8.3zm9.9-8.4h7v2.2h-4.7v1.9h4.5v2.1h-4.5V17h5v2h-7.3z" fill="#646475"/><path d="M4.6 0s3.4 3 3 5.6c-.3 1.2-1.9 3.1-1 5 .9 2 1.4 5.8-2.7 4.8S0 9.5 3 7c3-2.7 2-5.6 1.5-7" fill="#D30035"/><path d="M7.7 9c-.2 2 2 4 .2 6.7-1.2 2 .7 4.6 3 4 2.7-.5 3.4-2.1 3.3-4 0-2.6-1-3.2-3.2-5.1-2.4-2-.6-5.8-.6-5.8S8 6.8 7.7 8.9" fill="#D30035"/><path d="M.5 14.9c.7.9 2.2 2 5 2 .8 0 .1 1.6 1.8 3a5 5 0 0 0 4.5.9c.6-.3 1.1-.5.7 0-2 2.6-5.4 2.5-7.8 1.5-3-1-3.7-3.2-4.2-4.5-.5-1.5-.2-3.2 0-3" fill="#D30035"/></g></svg>
