<svg xmlns="http://www.w3.org/2000/svg" viewBox="0 0 1239.3 310.1" xml:space="preserve"><path d="M1158.5 187.7a6 6 0 0 1-6.1-6.1c0-3.3 2.7-6.1 6.1-6.1s6.1 2.7 6.1 6.1-2.8 6.1-6.1 6.1m0-11a5 5 0 1 0 0 9.8 5 5 0 0 0 0-9.8m3.1 8.1h-1.4l-1.2-2.3h-1.6v2.3h-1.3v-6.7h3.2q2.2.1 2.3 2.2a2 2 0 0 1-1.4 2zm-2.4-3.5q.9 0 1-1 0-1.1-1-1h-2v2zM523 174.9h15.6v42.5h27.1V231H523zm58.8 28.2c0-16.1 13-29.2 30.3-29.2s30.1 12.9 30.1 29v.2c0 16.1-13 29.2-30.3 29.2a29.3 29.3 0 0 1-30.1-29.1m44.6 0c0-8.1-5.8-15.1-14.4-15.1-8.5 0-14.2 6.9-14.2 15v.2c0 8.1 5.8 15.1 14.3 15.1 8.6-.1 14.3-7 14.3-15.1m34.9 3.1v-31.5h15.8v31.2c0 8.1 4.1 11.9 10.3 11.9s10.3-3.7 10.3-11.5v-31.6h15.8V206c0 18.1-10.3 26-26.3 26-15.9.1-25.9-8-25.9-25.6m76-31.5H759c20 0 31.7 11.5 31.7 27.7v.2c0 16.2-11.8 28.2-32 28.2h-21.3zm21.9 42.3c9.3 0 15.5-5.1 15.5-14.2v-.2c0-9-6.2-14.2-15.5-14.2h-6.3v28.5zm54-42.3h44.9v13.7h-29.4v9.5h26.6V211h-26.6v20h-15.5zm66.5 0h15.5v42.5h27.2V231h-42.7zm83.3-.4h15l23.9 56.5h-16.7l-4.1-10h-21.6l-4 10h-16.3zm13.7 34.4-6.2-15.9-6.3 15.9zm45.2-34h26.5q12.8.1 18.3 6.1 5 4.7 5 13.1v.2c0 8.6-4.6 14.3-11.5 17.2l13.4 19.6h-18l-11.3-17h-6.8v17H1022zm25.8 27c5.3 0 8.3-2.6 8.3-6.6v-.3c0-4.4-3.2-6.6-8.4-6.6h-10.2v13.5zm46.4-27h45.1v13.3h-29.7v8.4h26.9v12.3h-26.9v8.9h30.1V231h-45.5zM489 209.7a14 14 0 0 1-12.8 8.4c-8.5 0-14.3-7.1-14.3-15.1v-.2c0-8.1 5.7-15 14.2-15a14 14 0 0 1 13.3 9.3h16.4a29 29 0 0 0-29.6-23.3 29.4 29.4 0 0 0-30.3 29.2v.2a29 29 0 0 0 30.1 29c14.8 0 26.4-9.6 29.4-22.4z" fill="#404041"/><path fill="#fff" d="M391.1 169.6 348.2 145l-7.4-3.2-175.5 1.3v89l225.8.1z"/><path d="M313 224c2.1-7.2 1.3-13.8-2.2-18.7a19 19 0 0 0-15.1-7.4l-123.1-1.6q-1.3 0-1.9-1t-.3-2.2a3 3 0 0 1 2.9-2.2l124.2-1.6a45 45 0 0 0 36.3-27.2l7.1-18.5a4 4 0 0 0 .2-2.4 80.8 80.8 0 0 0-155.5-8.3 36.4 36.4 0 0 0-57.1 38.1 51.7 51.7 0 0 0-49.7 59.2 2.5 2.5 0 0 0 2.4 2.1h227.2a3 3 0 0 0 2.9-2.2z" fill="#f38020"/><path d="m352.2 144.9-3.4.1q-1.3.1-1.8 1.4l-4.8 16.7c-2.1 7.2-1.3 13.8 2.2 18.7a19 19 0 0 0 15.1 7.4l26.2 1.6q1.3 0 1.9 1t.3 2.2a3 3 0 0 1-2.9 2.2l-27.3 1.6a44 44 0 0 0-36.3 27.2l-2 5.1c-.4 1 .3 2 1.4 2h93.8q1.8 0 2.4-1.8a67.2 67.2 0 0 0-64.8-85.4" fill="#faae40"/></svg>
