<svg xmlns="http://www.w3.org/2000/svg" viewBox="0 0 348 83.2"><path d="m347.7 60.4-8.8-15a13.6 13.6 0 0 0-5.3-26.2h-19.2a2.4 2.4 0 0 0-2.4 2.4v40a2.4 2.4 0 0 0 2.4 2.4h1.6a2.4 2.4 0 0 0 2.4-2.4V46.4h14l9.5 16.4A2 2 0 0 0 344 64h1.6a2.4 2.4 0 0 0 2.1-3.6m-29.3-34.8h15.2a7.2 7.2 0 0 1 0 14.4h-15.2Zm-20-6.4h-33.6a2.4 2.4 0 0 0-2.4 2.4v1.6a2.4 2.4 0 0 0 2.4 2.4h13.6v36a2.4 2.4 0 0 0 2.4 2.4h1.6a2.4 2.4 0 0 0 2.4-2.4v-36h13.6a2.4 2.4 0 0 0 2.4-2.4v-1.6a2.4 2.4 0 0 0-2.4-2.4m-35.2 38.4h-21.6v-36a2.4 2.4 0 0 0-2.4-2.4h-1.6a2.4 2.4 0 0 0-2.4 2.4v40a2.4 2.4 0 0 0 2.4 2.4h25.6a2.4 2.4 0 0 0 2.4-2.4V60a2.4 2.4 0 0 0-2.4-2.4m-40.8-36a2.4 2.4 0 0 0-2.4-2.4h-1.6a2.4 2.4 0 0 0-2.4 2.4v24.8a12 12 0 1 1-24 0V21.6a2.4 2.4 0 0 0-2.4-2.4H188a2.4 2.4 0 0 0-2.4 2.4v24.8a18.4 18.4 0 1 0 36.8 0Zm-48.8-2.4h-1.5a2.4 2.4 0 0 0-2.2 1.5L156 55.4l-13.9-34.7a2.4 2.4 0 0 0-2.2-1.5h-1.5a2.4 2.4 0 0 0-2.2 3.3l16 40a2.4 2.4 0 0 0 2.2 1.5h3.2a2.4 2.4 0 0 0 2.2-1.5l16-40a2.4 2.4 0 0 0-2.2-3.3" fill="#142149"/><path d="M33.5 2.2A5 5 0 0 0 29.4 0H4.8a4.8 4.8 0 0 0-4 7.4l5 8 32.7-5.2Z" fill="#c9f4ff"/><path d="M38.5 10.2a5 5 0 0 0-4-2.2H9.7a4.8 4.8 0 0 0-4 7.4l7 11.2 32.8-5.2Z" fill="#51b9ff"/><path d="M12.8 26.6a5 5 0 0 1-.7-2.6 5 5 0 0 1 4.8-4.8h24.6a5 5 0 0 1 4 2.2l22 35a5 5 0 0 1 0 5L55.4 81a4.8 4.8 0 0 1-8.2 0ZM74.9 37a4.8 4.8 0 0 0 8.1 0l4.2-6.7 8-12.8a5 5 0 0 0 0-5.1L89 2.2A5 5 0 0 0 84.8 0H60.2a4.8 4.8 0 0 0-4 7.4Z" fill="#007bfc"/></svg>
