<svg fill="none" xmlns="http://www.w3.org/2000/svg" viewBox="0 0 1821 309"><g clip-path="url(#a)"><path d="M636 233h-98l-12 34q-4 9-14 10h-53q-11-1-7-10l96-233q5-9 15-10h50q10 1 15 10l95 233q3 10-7 10h-53q-10-1-14-10zm-17-50-32-92-31 92zm330 94q-11-1-17-9l-45-72-45 72q-7 8-17 9h-65q-9-1-5-8l87-122-79-114q-5-8 5-9h59q11 1 18 9l42 66 42-66q6-8 17-9h60q9 1 5 9l-80 114 87 122q6 7-4 8zm184-10q-1 10-11 10h-48q-10-1-11-10V35q1-10 11-11h48q10 1 11 11zm42-117c0-74 58-133 146-133 89 0 147 59 147 133s-58 133-147 133c-88 0-146-59-146-133m221 0c0-38-28-73-75-73-46 0-74 35-74 73s28 74 74 74 75-36 75-74m370 127q-10-1-12-10l-18-136-53 136q-5 10-16 10h-23q-10-1-15-10l-53-137-18 137q-3 10-13 10h-45q-10-1-9-10l33-232q2-10 13-11h41q10 1 15 10l63 158 62-158q5-9 16-10h41q10 1 13 11l33 232q0 9-10 10zM355 216 278 88c-3-6-12-11-19-11h-47q-17-1-11-17l27-43q3-6 0-11-3-6-10-6h-67c-7 0-16 5-19 11L3 225c-4 6-4 16 0 22l33 55c5 9 15 9 20 0l26-43q11-14 20 0l24 39c3 6 12 11 19 11h154q12-1 19-11l37-61c3-6 3-16 0-21m-103-7q7 16-10 17H122q-18-1-10-17l60-99q9-13 20 0z" fill="#000"/></g><defs><clipPath id="a"><path fill="#fff" d="M0 0h1821v309H0z"/></clipPath></defs></svg>
