<svg fill="none" xmlns="http://www.w3.org/2000/svg" viewBox="0 0 284 69"><path fill-rule="evenodd" clip-rule="evenodd" d="M.8 50.9 10.9 43q8 10.4 17.5 10.3 9.3.1 17-10.2l10.2 7.6Q44.4 66 28.4 66 12.3 66 .8 51" fill="url(#a)"/><path fill-rule="evenodd" clip-rule="evenodd" d="m28.3 17.2-18 15.5L2 23 28.4.3l26.1 22.8-8.3 9.6z" fill="url(#b)"/><path fill="#000" d="M114.5 13.4h10.2v42.5h-10.2z"/><path fill-rule="evenodd" clip-rule="evenodd" d="M94 56.1q-9 0-15.2-5.8-6-6-6-15.2A20.7 20.7 0 0 1 94 13.6a22 22 0 0 1 17.6 8.2l-6.6 7q-4.7-5.2-10.4-5.2-4.6 0-8 3.2a11 11 0 0 0-3 8.2q0 4.8 3 8 3.4 3.3 8 3.2 6 0 10.6-5.3l6.9 6.6a23 23 0 0 1-18.2 8.6M140 16.8a5.5 5.5 0 1 1-11 0 5.5 5.5 0 0 1 11 0m-.4 8.1h-10.2v31h10.2zm19.7 31.3a16 16 0 0 1-11.8-4.5Q143 47.2 143 40a15.5 15.5 0 0 1 16.5-16c6.4 0 12 3.1 14.6 9l-7.8 4q-2.3-3.8-6.6-3.9-3 0-5 2a7 7 0 0 0-2 5c0 4 3 7 7 7a7 7 0 0 0 6.5-3.9l7.8 4.7a16 16 0 0 1-14.7 8.3m27.5-42.8h-10.2V56h10.2V45.1L188 44l9.3 12h11.9l-14.3-18.4 13.6-12.7H196l-9.2 8.6zM211 39.9V13.4h10.7v25.9c0 4.6 2.6 6.8 6.5 6.8s6.6-2.3 6.6-6.8V13.4h10.7V40c0 12.1-8.6 16.7-17.3 16.7-8.6 0-17.2-4.6-17.2-16.7m57.4 16.8c8.2 0 14.9-7.2 14.9-16.2s-6.7-16.1-14.9-16.1a14 14 0 0 0-9 3.2V25h-9.7v43.8h9.8V53.6a14 14 0 0 0 9 3.2m-9-16.2c0-4 3.2-7.2 7.1-7.2s7 3.2 7 7.2-3.1 7.3-7 7.3-7-3.3-7-7.3" fill="#000"/><defs><linearGradient id="a" x1=".8" y1="70.3" x2="55.6" y2="70.3" gradientUnits="userSpaceOnUse"><stop stop-color="#8930FD"/><stop offset="1" stop-color="#49CCF9"/></linearGradient><linearGradient id="b" x1="2" y1="38.5" x2="54.5" y2="38.5" gradientUnits="userSpaceOnUse"><stop stop-color="#FF02F0"/><stop offset="1" stop-color="#FFC800"/></linearGradient></defs></svg>
